<mxfile host="app.diagrams.net" modified="2023-03-07T05:38:08.250Z" agent="5.0 (Windows NT 10.0; Win64; x64) AppleWebKit/537.36 (KHTML, like Gecko) Chrome/110.0.0.0 Safari/537.36" etag="0bypf3d7o6nGpGXolQas" version="21.0.2" type="github">
  <diagram name="Page-1" id="KcpRlHwwisE72_F1OleH">
    <mxGraphModel dx="2924" dy="2224" grid="1" gridSize="10" guides="1" tooltips="1" connect="1" arrows="1" fold="1" page="1" pageScale="1" pageWidth="850" pageHeight="1100" math="0" shadow="0">
      <root>
        <mxCell id="0" />
        <mxCell id="1" parent="0" />
        <mxCell id="mr6lbZ1328Sc4nQ17jco-1" value="Teacher" style="rounded=0;whiteSpace=wrap;html=1;fillColor=#dae8fc;strokeColor=#6c8ebf;" parent="1" vertex="1">
          <mxGeometry x="-555" y="-760" width="120" height="60" as="geometry" />
        </mxCell>
        <mxCell id="mr6lbZ1328Sc4nQ17jco-2" value="Student" style="rounded=0;whiteSpace=wrap;html=1;fillColor=#dae8fc;strokeColor=#6c8ebf;" parent="1" vertex="1">
          <mxGeometry x="-553.75" y="-210" width="120" height="60" as="geometry" />
        </mxCell>
        <mxCell id="mr6lbZ1328Sc4nQ17jco-3" value="Class" style="rounded=0;whiteSpace=wrap;html=1;fillColor=#dae8fc;strokeColor=#6c8ebf;" parent="1" vertex="1">
          <mxGeometry x="-555" y="-490" width="120" height="60" as="geometry" />
        </mxCell>
        <mxCell id="mr6lbZ1328Sc4nQ17jco-10" value="Employee" style="rounded=0;whiteSpace=wrap;html=1;fillColor=#dae8fc;strokeColor=#6c8ebf;" parent="1" vertex="1">
          <mxGeometry x="-554.5" y="-1010" width="120" height="60" as="geometry" />
        </mxCell>
        <mxCell id="mr6lbZ1328Sc4nQ17jco-11" value="Supervisor" style="rounded=0;whiteSpace=wrap;html=1;fillColor=#dae8fc;strokeColor=#6c8ebf;" parent="1" vertex="1">
          <mxGeometry x="-345" y="-760" width="120" height="60" as="geometry" />
        </mxCell>
        <mxCell id="mr6lbZ1328Sc4nQ17jco-12" value="Admin" style="rounded=0;whiteSpace=wrap;html=1;fillColor=#dae8fc;strokeColor=#6c8ebf;" parent="1" vertex="1">
          <mxGeometry x="-760" y="-760" width="120" height="60" as="geometry" />
        </mxCell>
        <mxCell id="mr6lbZ1328Sc4nQ17jco-13" value="d" style="ellipse;whiteSpace=wrap;html=1;aspect=fixed;" parent="1" vertex="1">
          <mxGeometry x="-509.5" y="-850" width="30" height="30" as="geometry" />
        </mxCell>
        <mxCell id="mr6lbZ1328Sc4nQ17jco-14" value="" style="endArrow=none;html=1;rounded=0;entryX=0.5;entryY=1;entryDx=0;entryDy=0;exitX=0.5;exitY=0;exitDx=0;exitDy=0;shape=link;" parent="1" source="mr6lbZ1328Sc4nQ17jco-13" target="mr6lbZ1328Sc4nQ17jco-10" edge="1">
          <mxGeometry width="50" height="50" relative="1" as="geometry">
            <mxPoint x="-289.5" y="-770" as="sourcePoint" />
            <mxPoint x="-239.5" y="-820" as="targetPoint" />
          </mxGeometry>
        </mxCell>
        <mxCell id="mr6lbZ1328Sc4nQ17jco-23" value="&lt;u&gt;ID&lt;/u&gt;" style="ellipse;whiteSpace=wrap;html=1;" parent="1" vertex="1">
          <mxGeometry x="-662" y="-960" width="85" height="50" as="geometry" />
        </mxCell>
        <mxCell id="mr6lbZ1328Sc4nQ17jco-24" value="Name" style="ellipse;whiteSpace=wrap;html=1;" parent="1" vertex="1">
          <mxGeometry x="-681" y="-1020" width="85" height="50" as="geometry" />
        </mxCell>
        <mxCell id="mr6lbZ1328Sc4nQ17jco-25" value="Phone" style="ellipse;whiteSpace=wrap;html=1;" parent="1" vertex="1">
          <mxGeometry x="-613.5" y="-1070" width="85" height="50" as="geometry" />
        </mxCell>
        <mxCell id="mr6lbZ1328Sc4nQ17jco-26" value="Username" style="ellipse;whiteSpace=wrap;html=1;" parent="1" vertex="1">
          <mxGeometry x="-537" y="-1100" width="85" height="50" as="geometry" />
        </mxCell>
        <mxCell id="mr6lbZ1328Sc4nQ17jco-28" value="Password" style="ellipse;whiteSpace=wrap;html=1;" parent="1" vertex="1">
          <mxGeometry x="-460" y="-1070" width="85" height="50" as="geometry" />
        </mxCell>
        <mxCell id="mr6lbZ1328Sc4nQ17jco-29" value="Email" style="ellipse;whiteSpace=wrap;html=1;" parent="1" vertex="1">
          <mxGeometry x="-402" y="-1020" width="85" height="50" as="geometry" />
        </mxCell>
        <mxCell id="mr6lbZ1328Sc4nQ17jco-30" value="Address" style="ellipse;whiteSpace=wrap;html=1;" parent="1" vertex="1">
          <mxGeometry x="-422" y="-960" width="85" height="50" as="geometry" />
        </mxCell>
        <mxCell id="mr6lbZ1328Sc4nQ17jco-31" value="" style="endArrow=none;html=1;rounded=0;entryX=1;entryY=0;entryDx=0;entryDy=0;exitX=0;exitY=0.75;exitDx=0;exitDy=0;" parent="1" source="mr6lbZ1328Sc4nQ17jco-10" target="mr6lbZ1328Sc4nQ17jco-23" edge="1">
          <mxGeometry width="50" height="50" relative="1" as="geometry">
            <mxPoint x="-577" y="-830" as="sourcePoint" />
            <mxPoint x="-527" y="-880" as="targetPoint" />
          </mxGeometry>
        </mxCell>
        <mxCell id="mr6lbZ1328Sc4nQ17jco-32" value="" style="endArrow=none;html=1;rounded=0;entryX=1;entryY=0.5;entryDx=0;entryDy=0;exitX=0;exitY=0.25;exitDx=0;exitDy=0;" parent="1" source="mr6lbZ1328Sc4nQ17jco-10" target="mr6lbZ1328Sc4nQ17jco-24" edge="1">
          <mxGeometry width="50" height="50" relative="1" as="geometry">
            <mxPoint x="-552" y="-955" as="sourcePoint" />
            <mxPoint x="-579" y="-943" as="targetPoint" />
          </mxGeometry>
        </mxCell>
        <mxCell id="mr6lbZ1328Sc4nQ17jco-33" value="" style="endArrow=none;html=1;rounded=0;entryX=1;entryY=1;entryDx=0;entryDy=0;exitX=0.25;exitY=0;exitDx=0;exitDy=0;" parent="1" source="mr6lbZ1328Sc4nQ17jco-10" target="mr6lbZ1328Sc4nQ17jco-25" edge="1">
          <mxGeometry width="50" height="50" relative="1" as="geometry">
            <mxPoint x="-537" y="-1010" as="sourcePoint" />
            <mxPoint x="-602" y="-985" as="targetPoint" />
          </mxGeometry>
        </mxCell>
        <mxCell id="mr6lbZ1328Sc4nQ17jco-34" value="" style="endArrow=none;html=1;rounded=0;entryX=0.5;entryY=1;entryDx=0;entryDy=0;exitX=0.5;exitY=0;exitDx=0;exitDy=0;" parent="1" source="mr6lbZ1328Sc4nQ17jco-10" target="mr6lbZ1328Sc4nQ17jco-26" edge="1">
          <mxGeometry width="50" height="50" relative="1" as="geometry">
            <mxPoint x="-527" y="-1000" as="sourcePoint" />
            <mxPoint x="-554" y="-1017" as="targetPoint" />
          </mxGeometry>
        </mxCell>
        <mxCell id="mr6lbZ1328Sc4nQ17jco-35" value="" style="endArrow=none;html=1;rounded=0;entryX=0;entryY=1;entryDx=0;entryDy=0;exitX=0.75;exitY=0;exitDx=0;exitDy=0;" parent="1" source="mr6lbZ1328Sc4nQ17jco-10" target="mr6lbZ1328Sc4nQ17jco-28" edge="1">
          <mxGeometry width="50" height="50" relative="1" as="geometry">
            <mxPoint x="-492" y="-1000" as="sourcePoint" />
            <mxPoint x="-492" y="-1040" as="targetPoint" />
          </mxGeometry>
        </mxCell>
        <mxCell id="mr6lbZ1328Sc4nQ17jco-36" value="" style="endArrow=none;html=1;rounded=0;entryX=0;entryY=0.5;entryDx=0;entryDy=0;exitX=1;exitY=0.25;exitDx=0;exitDy=0;" parent="1" source="mr6lbZ1328Sc4nQ17jco-10" target="mr6lbZ1328Sc4nQ17jco-29" edge="1">
          <mxGeometry width="50" height="50" relative="1" as="geometry">
            <mxPoint x="-462" y="-1000" as="sourcePoint" />
            <mxPoint x="-438" y="-1017" as="targetPoint" />
          </mxGeometry>
        </mxCell>
        <mxCell id="mr6lbZ1328Sc4nQ17jco-37" value="" style="endArrow=none;html=1;rounded=0;entryX=0;entryY=0;entryDx=0;entryDy=0;exitX=1;exitY=0.75;exitDx=0;exitDy=0;" parent="1" source="mr6lbZ1328Sc4nQ17jco-10" target="mr6lbZ1328Sc4nQ17jco-30" edge="1">
          <mxGeometry width="50" height="50" relative="1" as="geometry">
            <mxPoint x="-432" y="-985" as="sourcePoint" />
            <mxPoint x="-392" y="-985" as="targetPoint" />
          </mxGeometry>
        </mxCell>
        <mxCell id="mr6lbZ1328Sc4nQ17jco-55" value="In" style="rhombus;whiteSpace=wrap;html=1;fillColor=#fad7ac;strokeColor=#b46504;" parent="1" vertex="1">
          <mxGeometry x="-549.5" y="-340" width="110" height="50" as="geometry" />
        </mxCell>
        <mxCell id="mr6lbZ1328Sc4nQ17jco-56" value="Time" style="ellipse;whiteSpace=wrap;html=1;" parent="1" vertex="1">
          <mxGeometry x="-639" y="-420" width="85" height="50" as="geometry" />
        </mxCell>
        <mxCell id="mr6lbZ1328Sc4nQ17jco-57" value="&lt;u&gt;ID&lt;/u&gt;" style="ellipse;whiteSpace=wrap;html=1;" parent="1" vertex="1">
          <mxGeometry x="-669" y="-485" width="85" height="50" as="geometry" />
        </mxCell>
        <mxCell id="mr6lbZ1328Sc4nQ17jco-58" value="Name" style="ellipse;whiteSpace=wrap;html=1;" parent="1" vertex="1">
          <mxGeometry x="-639" y="-550" width="85" height="50" as="geometry" />
        </mxCell>
        <mxCell id="mr6lbZ1328Sc4nQ17jco-59" value="Location" style="ellipse;whiteSpace=wrap;html=1;" parent="1" vertex="1">
          <mxGeometry x="-430" y="-550" width="85" height="50" as="geometry" />
        </mxCell>
        <mxCell id="mr6lbZ1328Sc4nQ17jco-60" value="Timetable" style="ellipse;whiteSpace=wrap;html=1;" parent="1" vertex="1">
          <mxGeometry x="-430" y="-420" width="85" height="50" as="geometry" />
        </mxCell>
        <mxCell id="mr6lbZ1328Sc4nQ17jco-61" value="Name" style="ellipse;whiteSpace=wrap;html=1;" parent="1" vertex="1">
          <mxGeometry x="-638.25" y="-140" width="85" height="50" as="geometry" />
        </mxCell>
        <mxCell id="mr6lbZ1328Sc4nQ17jco-62" value="&lt;u&gt;ID&lt;/u&gt;" style="ellipse;whiteSpace=wrap;html=1;" parent="1" vertex="1">
          <mxGeometry x="-536.25" y="-120" width="85" height="50" as="geometry" />
        </mxCell>
        <mxCell id="mr6lbZ1328Sc4nQ17jco-64" value="SSN" style="ellipse;whiteSpace=wrap;html=1;" parent="1" vertex="1">
          <mxGeometry x="-650" y="-300" width="85" height="50" as="geometry" />
        </mxCell>
        <mxCell id="mr6lbZ1328Sc4nQ17jco-65" value="Phone" style="ellipse;whiteSpace=wrap;html=1;" parent="1" vertex="1">
          <mxGeometry x="-433.75" y="-140" width="85" height="50" as="geometry" />
        </mxCell>
        <mxCell id="mr6lbZ1328Sc4nQ17jco-66" value="Email" style="ellipse;whiteSpace=wrap;html=1;" parent="1" vertex="1">
          <mxGeometry x="-658.75" y="-205" width="85" height="50" as="geometry" />
        </mxCell>
        <mxCell id="mr6lbZ1328Sc4nQ17jco-67" value="Address" style="ellipse;whiteSpace=wrap;html=1;" parent="1" vertex="1">
          <mxGeometry x="-415.25" y="-205" width="85" height="50" as="geometry" />
        </mxCell>
        <mxCell id="mr6lbZ1328Sc4nQ17jco-69" value="Manage" style="rhombus;whiteSpace=wrap;html=1;fillColor=#fad7ac;strokeColor=#b46504;" parent="1" vertex="1">
          <mxGeometry x="-550" y="-610" width="110" height="50" as="geometry" />
        </mxCell>
        <mxCell id="mr6lbZ1328Sc4nQ17jco-70" value="Status of Teacher" style="ellipse;whiteSpace=wrap;html=1;" parent="1" vertex="1">
          <mxGeometry x="10" y="-410" width="85" height="50" as="geometry" />
        </mxCell>
        <mxCell id="mr6lbZ1328Sc4nQ17jco-71" value="&lt;u&gt;ID&lt;/u&gt;" style="ellipse;whiteSpace=wrap;html=1;" parent="1" vertex="1">
          <mxGeometry x="35" y="-485" width="85" height="50" as="geometry" />
        </mxCell>
        <mxCell id="mr6lbZ1328Sc4nQ17jco-73" value="NoteTeacher" style="ellipse;whiteSpace=wrap;html=1;dashed=1;dashPattern=8 8;" parent="1" vertex="1">
          <mxGeometry x="130" y="-410" width="85" height="50" as="geometry" />
        </mxCell>
        <mxCell id="mr6lbZ1328Sc4nQ17jco-80" value="" style="endArrow=none;html=1;rounded=0;entryX=1;entryY=0;entryDx=0;entryDy=0;exitX=0;exitY=1;exitDx=0;exitDy=0;" parent="1" source="mr6lbZ1328Sc4nQ17jco-55" target="mr6lbZ1328Sc4nQ17jco-64" edge="1">
          <mxGeometry width="50" height="50" relative="1" as="geometry">
            <mxPoint x="-455" y="-140" as="sourcePoint" />
            <mxPoint x="-513" y="-265" as="targetPoint" />
          </mxGeometry>
        </mxCell>
        <mxCell id="mr6lbZ1328Sc4nQ17jco-81" value="" style="endArrow=none;html=1;rounded=0;entryX=0;entryY=0.5;entryDx=0;entryDy=0;exitX=1;exitY=0.5;exitDx=0;exitDy=0;" parent="1" source="mr6lbZ1328Sc4nQ17jco-57" target="mr6lbZ1328Sc4nQ17jco-3" edge="1">
          <mxGeometry width="50" height="50" relative="1" as="geometry">
            <mxPoint x="-469" y="-340" as="sourcePoint" />
            <mxPoint x="-419" y="-390" as="targetPoint" />
          </mxGeometry>
        </mxCell>
        <mxCell id="mr6lbZ1328Sc4nQ17jco-82" value="" style="endArrow=none;html=1;rounded=0;entryX=0;entryY=0;entryDx=0;entryDy=0;exitX=1;exitY=1;exitDx=0;exitDy=0;" parent="1" source="mr6lbZ1328Sc4nQ17jco-58" target="mr6lbZ1328Sc4nQ17jco-3" edge="1">
          <mxGeometry width="50" height="50" relative="1" as="geometry">
            <mxPoint x="-574" y="-450" as="sourcePoint" />
            <mxPoint x="-540" y="-450" as="targetPoint" />
          </mxGeometry>
        </mxCell>
        <mxCell id="mr6lbZ1328Sc4nQ17jco-83" value="" style="endArrow=none;html=1;rounded=0;entryX=1;entryY=0;entryDx=0;entryDy=0;exitX=0;exitY=1;exitDx=0;exitDy=0;" parent="1" source="mr6lbZ1328Sc4nQ17jco-59" target="mr6lbZ1328Sc4nQ17jco-3" edge="1">
          <mxGeometry width="50" height="50" relative="1" as="geometry">
            <mxPoint x="-556" y="-497" as="sourcePoint" />
            <mxPoint x="-540" y="-480" as="targetPoint" />
          </mxGeometry>
        </mxCell>
        <mxCell id="mr6lbZ1328Sc4nQ17jco-84" value="" style="endArrow=none;html=1;rounded=0;exitX=1;exitY=0;exitDx=0;exitDy=0;entryX=0;entryY=1;entryDx=0;entryDy=0;" parent="1" source="mr6lbZ1328Sc4nQ17jco-56" target="mr6lbZ1328Sc4nQ17jco-3" edge="1">
          <mxGeometry width="50" height="50" relative="1" as="geometry">
            <mxPoint x="-469" y="-340" as="sourcePoint" />
            <mxPoint x="-419" y="-390" as="targetPoint" />
          </mxGeometry>
        </mxCell>
        <mxCell id="mr6lbZ1328Sc4nQ17jco-85" value="" style="endArrow=none;html=1;rounded=0;exitX=0;exitY=0;exitDx=0;exitDy=0;entryX=1;entryY=1;entryDx=0;entryDy=0;" parent="1" source="mr6lbZ1328Sc4nQ17jco-60" target="mr6lbZ1328Sc4nQ17jco-3" edge="1">
          <mxGeometry width="50" height="50" relative="1" as="geometry">
            <mxPoint x="-469" y="-340" as="sourcePoint" />
            <mxPoint x="-419" y="-390" as="targetPoint" />
          </mxGeometry>
        </mxCell>
        <mxCell id="mr6lbZ1328Sc4nQ17jco-86" value="" style="endArrow=none;html=1;rounded=0;exitX=1;exitY=0.5;exitDx=0;exitDy=0;entryX=0;entryY=0.5;entryDx=0;entryDy=0;" parent="1" source="mr6lbZ1328Sc4nQ17jco-66" target="mr6lbZ1328Sc4nQ17jco-2" edge="1">
          <mxGeometry width="50" height="50" relative="1" as="geometry">
            <mxPoint x="-548.75" y="-220" as="sourcePoint" />
            <mxPoint x="-498.75" y="-270" as="targetPoint" />
          </mxGeometry>
        </mxCell>
        <mxCell id="mr6lbZ1328Sc4nQ17jco-87" value="" style="endArrow=none;html=1;rounded=0;exitX=1;exitY=0.5;exitDx=0;exitDy=0;entryX=0;entryY=0.5;entryDx=0;entryDy=0;" parent="1" source="mr6lbZ1328Sc4nQ17jco-2" target="mr6lbZ1328Sc4nQ17jco-67" edge="1">
          <mxGeometry width="50" height="50" relative="1" as="geometry">
            <mxPoint x="-548.75" y="-220" as="sourcePoint" />
            <mxPoint x="-498.75" y="-270" as="targetPoint" />
          </mxGeometry>
        </mxCell>
        <mxCell id="mr6lbZ1328Sc4nQ17jco-88" value="" style="endArrow=none;html=1;rounded=0;exitX=1;exitY=0;exitDx=0;exitDy=0;entryX=0;entryY=1;entryDx=0;entryDy=0;" parent="1" source="mr6lbZ1328Sc4nQ17jco-61" target="mr6lbZ1328Sc4nQ17jco-2" edge="1">
          <mxGeometry width="50" height="50" relative="1" as="geometry">
            <mxPoint x="-548.75" y="-220" as="sourcePoint" />
            <mxPoint x="-498.75" y="-270" as="targetPoint" />
          </mxGeometry>
        </mxCell>
        <mxCell id="mr6lbZ1328Sc4nQ17jco-89" value="" style="endArrow=none;html=1;rounded=0;exitX=0.5;exitY=0;exitDx=0;exitDy=0;entryX=0.5;entryY=1;entryDx=0;entryDy=0;" parent="1" source="mr6lbZ1328Sc4nQ17jco-62" target="mr6lbZ1328Sc4nQ17jco-2" edge="1">
          <mxGeometry width="50" height="50" relative="1" as="geometry">
            <mxPoint x="-555.75" y="-123" as="sourcePoint" />
            <mxPoint x="-543.75" y="-140" as="targetPoint" />
          </mxGeometry>
        </mxCell>
        <mxCell id="mr6lbZ1328Sc4nQ17jco-90" value="" style="endArrow=none;html=1;rounded=0;exitX=0;exitY=0;exitDx=0;exitDy=0;entryX=1;entryY=1;entryDx=0;entryDy=0;" parent="1" source="mr6lbZ1328Sc4nQ17jco-65" target="mr6lbZ1328Sc4nQ17jco-2" edge="1">
          <mxGeometry width="50" height="50" relative="1" as="geometry">
            <mxPoint x="-555.75" y="-123" as="sourcePoint" />
            <mxPoint x="-543.75" y="-140" as="targetPoint" />
          </mxGeometry>
        </mxCell>
        <mxCell id="mr6lbZ1328Sc4nQ17jco-91" value="" style="endArrow=none;html=1;rounded=0;exitX=0.5;exitY=0;exitDx=0;exitDy=0;entryX=0.5;entryY=1;entryDx=0;entryDy=0;" parent="1" source="mr6lbZ1328Sc4nQ17jco-69" target="mr6lbZ1328Sc4nQ17jco-1" edge="1">
          <mxGeometry width="50" height="50" relative="1" as="geometry">
            <mxPoint x="-400" y="-480" as="sourcePoint" />
            <mxPoint x="-350" y="-530" as="targetPoint" />
          </mxGeometry>
        </mxCell>
        <mxCell id="mr6lbZ1328Sc4nQ17jco-138" value="1" style="edgeLabel;html=1;align=center;verticalAlign=middle;resizable=0;points=[];" parent="mr6lbZ1328Sc4nQ17jco-91" connectable="0" vertex="1">
          <mxGeometry x="-0.5819" y="1" relative="1" as="geometry">
            <mxPoint x="-13" as="offset" />
          </mxGeometry>
        </mxCell>
        <mxCell id="mr6lbZ1328Sc4nQ17jco-98" value="" style="endArrow=none;html=1;rounded=0;entryX=0.5;entryY=1;entryDx=0;entryDy=0;exitX=1;exitY=0.5;exitDx=0;exitDy=0;" parent="1" source="mr6lbZ1328Sc4nQ17jco-69" target="mr6lbZ1328Sc4nQ17jco-11" edge="1">
          <mxGeometry width="50" height="50" relative="1" as="geometry">
            <mxPoint x="-284.171875" y="-579.921875" as="sourcePoint" />
            <mxPoint x="-270" y="-590" as="targetPoint" />
          </mxGeometry>
        </mxCell>
        <mxCell id="mr6lbZ1328Sc4nQ17jco-137" value="1" style="edgeLabel;html=1;align=center;verticalAlign=middle;resizable=0;points=[];" parent="mr6lbZ1328Sc4nQ17jco-98" connectable="0" vertex="1">
          <mxGeometry x="0.0769" y="-1" relative="1" as="geometry">
            <mxPoint x="-78" y="36" as="offset" />
          </mxGeometry>
        </mxCell>
        <mxCell id="mr6lbZ1328Sc4nQ17jco-103" value="" style="endArrow=none;html=1;rounded=0;exitX=1;exitY=0.5;exitDx=0;exitDy=0;entryX=0;entryY=0.5;entryDx=0;entryDy=0;startArrow=none;exitPerimeter=0;" parent="1" source="mr6lbZ1328Sc4nQ17jco-130" target="mr6lbZ1328Sc4nQ17jco-13" edge="1">
          <mxGeometry width="50" height="50" relative="1" as="geometry">
            <mxPoint x="-410" y="-660" as="sourcePoint" />
            <mxPoint x="-360" y="-710" as="targetPoint" />
          </mxGeometry>
        </mxCell>
        <mxCell id="mr6lbZ1328Sc4nQ17jco-104" value="" style="endArrow=none;html=1;rounded=0;exitX=1;exitY=0.5;exitDx=0;exitDy=0;entryX=0.5;entryY=1;entryDx=0;entryDy=0;startArrow=none;exitPerimeter=0;" parent="1" source="mr6lbZ1328Sc4nQ17jco-132" target="mr6lbZ1328Sc4nQ17jco-13" edge="1">
          <mxGeometry width="50" height="50" relative="1" as="geometry">
            <mxPoint x="-630" y="-750" as="sourcePoint" />
            <mxPoint x="-495" y="-825" as="targetPoint" />
          </mxGeometry>
        </mxCell>
        <mxCell id="mr6lbZ1328Sc4nQ17jco-105" value="" style="endArrow=none;html=1;rounded=0;entryX=1;entryY=0.5;entryDx=0;entryDy=0;exitX=1;exitY=0.5;exitDx=0;exitDy=0;startArrow=none;exitPerimeter=0;" parent="1" source="mr6lbZ1328Sc4nQ17jco-134" target="mr6lbZ1328Sc4nQ17jco-13" edge="1">
          <mxGeometry width="50" height="50" relative="1" as="geometry">
            <mxPoint x="-340" y="-730" as="sourcePoint" />
            <mxPoint x="-290" y="-780" as="targetPoint" />
          </mxGeometry>
        </mxCell>
        <mxCell id="mr6lbZ1328Sc4nQ17jco-110" value="" style="endArrow=none;html=1;rounded=0;entryX=1;entryY=0.5;entryDx=0;entryDy=0;" parent="1" source="mr6lbZ1328Sc4nQ17jco-73" target="mr6lbZ1328Sc4nQ17jco-70" edge="1">
          <mxGeometry width="50" height="50" relative="1" as="geometry">
            <mxPoint x="203" y="-265" as="sourcePoint" />
            <mxPoint x="183" y="-295" as="targetPoint" />
          </mxGeometry>
        </mxCell>
        <mxCell id="mr6lbZ1328Sc4nQ17jco-115" value="Report for class" style="rounded=0;whiteSpace=wrap;html=1;fillColor=#dae8fc;strokeColor=#6c8ebf;" parent="1" vertex="1">
          <mxGeometry x="-130" y="-490" width="120" height="60" as="geometry" />
        </mxCell>
        <mxCell id="mr6lbZ1328Sc4nQ17jco-117" value="" style="endArrow=none;html=1;rounded=0;entryX=0.5;entryY=0;entryDx=0;entryDy=0;exitX=0.5;exitY=1;exitDx=0;exitDy=0;shape=link;" parent="1" source="mr6lbZ1328Sc4nQ17jco-69" target="mr6lbZ1328Sc4nQ17jco-3" edge="1">
          <mxGeometry width="50" height="50" relative="1" as="geometry">
            <mxPoint x="-670" y="-530" as="sourcePoint" />
            <mxPoint x="-500" y="-570" as="targetPoint" />
          </mxGeometry>
        </mxCell>
        <mxCell id="mr6lbZ1328Sc4nQ17jco-136" value="1" style="edgeLabel;html=1;align=center;verticalAlign=middle;resizable=0;points=[];" parent="mr6lbZ1328Sc4nQ17jco-117" connectable="0" vertex="1">
          <mxGeometry x="-0.2648" y="-3" relative="1" as="geometry">
            <mxPoint x="-11" y="-15" as="offset" />
          </mxGeometry>
        </mxCell>
        <mxCell id="mr6lbZ1328Sc4nQ17jco-118" value="Note" style="rhombus;whiteSpace=wrap;html=1;fillColor=#fad7ac;strokeColor=#b46504;" parent="1" vertex="1">
          <mxGeometry x="-317" y="-485" width="110" height="50" as="geometry" />
        </mxCell>
        <mxCell id="mr6lbZ1328Sc4nQ17jco-119" value="1" style="endArrow=none;html=1;rounded=0;entryX=0;entryY=0.5;entryDx=0;entryDy=0;exitX=1;exitY=0.5;exitDx=0;exitDy=0;shape=link;" parent="1" source="mr6lbZ1328Sc4nQ17jco-3" target="mr6lbZ1328Sc4nQ17jco-118" edge="1">
          <mxGeometry x="0.9492" y="10" width="50" height="50" relative="1" as="geometry">
            <mxPoint x="-430" y="-575" as="sourcePoint" />
            <mxPoint x="-275" y="-740" as="targetPoint" />
            <mxPoint as="offset" />
          </mxGeometry>
        </mxCell>
        <mxCell id="mr6lbZ1328Sc4nQ17jco-120" value="" style="endArrow=none;html=1;rounded=0;exitX=1;exitY=0.5;exitDx=0;exitDy=0;entryX=0;entryY=0.5;entryDx=0;entryDy=0;shape=link;" parent="1" source="mr6lbZ1328Sc4nQ17jco-118" target="mr6lbZ1328Sc4nQ17jco-115" edge="1">
          <mxGeometry width="50" height="50" relative="1" as="geometry">
            <mxPoint x="-360" y="-480" as="sourcePoint" />
            <mxPoint x="-310" y="-530" as="targetPoint" />
          </mxGeometry>
        </mxCell>
        <mxCell id="mr6lbZ1328Sc4nQ17jco-139" value="1" style="edgeLabel;html=1;align=center;verticalAlign=middle;resizable=0;points=[];" parent="mr6lbZ1328Sc4nQ17jco-120" connectable="0" vertex="1">
          <mxGeometry x="-0.526" y="-3" relative="1" as="geometry">
            <mxPoint x="-11" y="-13" as="offset" />
          </mxGeometry>
        </mxCell>
        <mxCell id="mr6lbZ1328Sc4nQ17jco-121" value="Date" style="ellipse;whiteSpace=wrap;html=1;" parent="1" vertex="1">
          <mxGeometry x="-260" y="-550" width="85" height="50" as="geometry" />
        </mxCell>
        <mxCell id="mr6lbZ1328Sc4nQ17jco-122" value="" style="endArrow=none;html=1;rounded=0;exitX=0.5;exitY=0;exitDx=0;exitDy=0;entryX=0;entryY=1;entryDx=0;entryDy=0;" parent="1" source="mr6lbZ1328Sc4nQ17jco-118" target="mr6lbZ1328Sc4nQ17jco-121" edge="1">
          <mxGeometry width="50" height="50" relative="1" as="geometry">
            <mxPoint x="-360" y="-480" as="sourcePoint" />
            <mxPoint x="-310" y="-530" as="targetPoint" />
          </mxGeometry>
        </mxCell>
        <mxCell id="mr6lbZ1328Sc4nQ17jco-123" value="" style="endArrow=none;html=1;rounded=0;entryX=0.5;entryY=1;entryDx=0;entryDy=0;exitX=0.5;exitY=0;exitDx=0;exitDy=0;shape=link;" parent="1" source="mr6lbZ1328Sc4nQ17jco-55" target="mr6lbZ1328Sc4nQ17jco-3" edge="1">
          <mxGeometry width="50" height="50" relative="1" as="geometry">
            <mxPoint x="-510" y="-260" as="sourcePoint" />
            <mxPoint x="-460" y="-310" as="targetPoint" />
          </mxGeometry>
        </mxCell>
        <mxCell id="mr6lbZ1328Sc4nQ17jco-124" value="" style="endArrow=none;html=1;rounded=0;entryX=0.5;entryY=1;entryDx=0;entryDy=0;exitX=0.5;exitY=0;exitDx=0;exitDy=0;" parent="1" source="mr6lbZ1328Sc4nQ17jco-2" target="mr6lbZ1328Sc4nQ17jco-55" edge="1">
          <mxGeometry width="50" height="50" relative="1" as="geometry">
            <mxPoint x="-510" y="-260" as="sourcePoint" />
            <mxPoint x="-500" y="-290" as="targetPoint" />
          </mxGeometry>
        </mxCell>
        <mxCell id="mr6lbZ1328Sc4nQ17jco-141" value="N" style="edgeLabel;html=1;align=center;verticalAlign=middle;resizable=0;points=[];" parent="mr6lbZ1328Sc4nQ17jco-124" connectable="0" vertex="1">
          <mxGeometry x="0.3124" y="2" relative="1" as="geometry">
            <mxPoint x="17" y="-87" as="offset" />
          </mxGeometry>
        </mxCell>
        <mxCell id="mr6lbZ1328Sc4nQ17jco-142" value="N" style="edgeLabel;html=1;align=center;verticalAlign=middle;resizable=0;points=[];" parent="mr6lbZ1328Sc4nQ17jco-124" connectable="0" vertex="1">
          <mxGeometry x="0.2658" y="-3" relative="1" as="geometry">
            <mxPoint x="11" y="-19" as="offset" />
          </mxGeometry>
        </mxCell>
        <mxCell id="mr6lbZ1328Sc4nQ17jco-127" value="" style="endArrow=none;html=1;rounded=0;exitX=1;exitY=1;exitDx=0;exitDy=0;entryX=0;entryY=0;entryDx=0;entryDy=0;" parent="1" source="mr6lbZ1328Sc4nQ17jco-115" target="mr6lbZ1328Sc4nQ17jco-70" edge="1">
          <mxGeometry width="50" height="50" relative="1" as="geometry">
            <mxPoint x="-340" y="-480" as="sourcePoint" />
            <mxPoint x="-290" y="-530" as="targetPoint" />
          </mxGeometry>
        </mxCell>
        <mxCell id="mr6lbZ1328Sc4nQ17jco-129" value="" style="endArrow=none;html=1;rounded=0;exitX=1;exitY=0.5;exitDx=0;exitDy=0;entryX=0;entryY=0.5;entryDx=0;entryDy=0;" parent="1" source="mr6lbZ1328Sc4nQ17jco-115" target="mr6lbZ1328Sc4nQ17jco-71" edge="1">
          <mxGeometry width="50" height="50" relative="1" as="geometry">
            <mxPoint x="-30" y="-440" as="sourcePoint" />
            <mxPoint x="20" y="-490" as="targetPoint" />
          </mxGeometry>
        </mxCell>
        <mxCell id="mr6lbZ1328Sc4nQ17jco-131" value="" style="endArrow=none;html=1;rounded=0;exitX=1;exitY=0;exitDx=0;exitDy=0;entryX=1;entryY=0.5;entryDx=0;entryDy=0;entryPerimeter=0;" parent="1" source="mr6lbZ1328Sc4nQ17jco-12" target="mr6lbZ1328Sc4nQ17jco-130" edge="1">
          <mxGeometry width="50" height="50" relative="1" as="geometry">
            <mxPoint x="-640" y="-760" as="sourcePoint" />
            <mxPoint x="-509" y="-835" as="targetPoint" />
          </mxGeometry>
        </mxCell>
        <mxCell id="mr6lbZ1328Sc4nQ17jco-130" value="" style="shape=requiredInterface;html=1;verticalLabelPosition=bottom;sketch=0;rotation=-210;" parent="1" vertex="1">
          <mxGeometry x="-577" y="-810" width="10" height="20" as="geometry" />
        </mxCell>
        <mxCell id="mr6lbZ1328Sc4nQ17jco-133" value="" style="endArrow=none;html=1;rounded=0;exitX=0.5;exitY=0;exitDx=0;exitDy=0;entryX=1;entryY=0.5;entryDx=0;entryDy=0;entryPerimeter=0;" parent="1" source="mr6lbZ1328Sc4nQ17jco-1" target="mr6lbZ1328Sc4nQ17jco-132" edge="1">
          <mxGeometry width="50" height="50" relative="1" as="geometry">
            <mxPoint x="-495" y="-760" as="sourcePoint" />
            <mxPoint x="-494" y="-820" as="targetPoint" />
          </mxGeometry>
        </mxCell>
        <mxCell id="mr6lbZ1328Sc4nQ17jco-132" value="" style="shape=requiredInterface;html=1;verticalLabelPosition=bottom;sketch=0;rotation=90;" parent="1" vertex="1">
          <mxGeometry x="-500" y="-800" width="10" height="20" as="geometry" />
        </mxCell>
        <mxCell id="mr6lbZ1328Sc4nQ17jco-135" value="" style="endArrow=none;html=1;rounded=0;entryX=1;entryY=0.5;entryDx=0;entryDy=0;exitX=0;exitY=0;exitDx=0;exitDy=0;" parent="1" source="mr6lbZ1328Sc4nQ17jco-11" target="mr6lbZ1328Sc4nQ17jco-134" edge="1">
          <mxGeometry width="50" height="50" relative="1" as="geometry">
            <mxPoint x="-345" y="-760" as="sourcePoint" />
            <mxPoint x="-479" y="-835" as="targetPoint" />
          </mxGeometry>
        </mxCell>
        <mxCell id="mr6lbZ1328Sc4nQ17jco-134" value="" style="shape=requiredInterface;html=1;verticalLabelPosition=bottom;sketch=0;rotation=30;" parent="1" vertex="1">
          <mxGeometry x="-422" y="-810" width="10" height="20" as="geometry" />
        </mxCell>
        <mxCell id="mr6lbZ1328Sc4nQ17jco-143" value="In" style="rhombus;whiteSpace=wrap;html=1;fillColor=#fad7ac;strokeColor=#b46504;" parent="1" vertex="1">
          <mxGeometry x="-285" y="-320" width="110" height="50" as="geometry" />
        </mxCell>
        <mxCell id="mr6lbZ1328Sc4nQ17jco-144" value="Status" style="ellipse;whiteSpace=wrap;html=1;" parent="1" vertex="1">
          <mxGeometry x="-160" y="-280" width="85" height="50" as="geometry" />
        </mxCell>
        <mxCell id="mr6lbZ1328Sc4nQ17jco-145" value="NoteStudent" style="ellipse;whiteSpace=wrap;html=1;" parent="1" vertex="1">
          <mxGeometry x="-160" y="-350" width="85" height="50" as="geometry" />
        </mxCell>
        <mxCell id="mr6lbZ1328Sc4nQ17jco-146" value="" style="endArrow=none;html=1;rounded=0;exitX=1;exitY=0;exitDx=0;exitDy=0;entryX=0.5;entryY=1;entryDx=0;entryDy=0;" parent="1" source="mr6lbZ1328Sc4nQ17jco-2" target="mr6lbZ1328Sc4nQ17jco-143" edge="1">
          <mxGeometry width="50" height="50" relative="1" as="geometry">
            <mxPoint x="-500" y="-300" as="sourcePoint" />
            <mxPoint x="-450" y="-350" as="targetPoint" />
          </mxGeometry>
        </mxCell>
        <mxCell id="mr6lbZ1328Sc4nQ17jco-150" value="1" style="edgeLabel;html=1;align=center;verticalAlign=middle;resizable=0;points=[];" parent="mr6lbZ1328Sc4nQ17jco-146" connectable="0" vertex="1">
          <mxGeometry x="0.4035" y="-1" relative="1" as="geometry">
            <mxPoint x="50" y="-4" as="offset" />
          </mxGeometry>
        </mxCell>
        <mxCell id="mr6lbZ1328Sc4nQ17jco-147" value="" style="endArrow=none;html=1;rounded=0;entryX=0.383;entryY=1;entryDx=0;entryDy=0;exitX=0.5;exitY=0;exitDx=0;exitDy=0;shape=link;entryPerimeter=0;" parent="1" source="mr6lbZ1328Sc4nQ17jco-143" target="mr6lbZ1328Sc4nQ17jco-115" edge="1">
          <mxGeometry width="50" height="50" relative="1" as="geometry">
            <mxPoint x="-500" y="-300" as="sourcePoint" />
            <mxPoint x="-450" y="-350" as="targetPoint" />
          </mxGeometry>
        </mxCell>
        <mxCell id="mr6lbZ1328Sc4nQ17jco-149" value="N" style="edgeLabel;html=1;align=center;verticalAlign=middle;resizable=0;points=[];" parent="mr6lbZ1328Sc4nQ17jco-147" connectable="0" vertex="1">
          <mxGeometry x="0.3258" relative="1" as="geometry">
            <mxPoint x="-101" y="53" as="offset" />
          </mxGeometry>
        </mxCell>
        <mxCell id="mr6lbZ1328Sc4nQ17jco-151" value="" style="endArrow=none;html=1;rounded=0;entryX=0;entryY=0.5;entryDx=0;entryDy=0;" parent="1" source="mr6lbZ1328Sc4nQ17jco-143" target="mr6lbZ1328Sc4nQ17jco-145" edge="1">
          <mxGeometry width="50" height="50" relative="1" as="geometry">
            <mxPoint x="-460" y="-300" as="sourcePoint" />
            <mxPoint x="-410" y="-350" as="targetPoint" />
          </mxGeometry>
        </mxCell>
        <mxCell id="mr6lbZ1328Sc4nQ17jco-152" value="" style="endArrow=none;html=1;rounded=0;exitX=1;exitY=1;exitDx=0;exitDy=0;entryX=0;entryY=0.5;entryDx=0;entryDy=0;" parent="1" source="mr6lbZ1328Sc4nQ17jco-143" target="mr6lbZ1328Sc4nQ17jco-144" edge="1">
          <mxGeometry width="50" height="50" relative="1" as="geometry">
            <mxPoint x="-460" y="-300" as="sourcePoint" />
            <mxPoint x="-410" y="-350" as="targetPoint" />
          </mxGeometry>
        </mxCell>
      </root>
    </mxGraphModel>
  </diagram>
</mxfile>
